<svg width="32" height="32" viewBox="0 0 32 32" fill="none" xmlns="http://www.w3.org/2000/svg">
<g clip-path="url(#clip0_2681_1476214)">
<mask id="mask0_2681_1476214" style="mask-type:alpha" maskUnits="userSpaceOnUse" x="0" y="0" width="32" height="32">
<circle cx="16" cy="16" r="16" fill="#2962FF"/>
</mask>
<g mask="url(#mask0_2681_1476214)">
<path d="M8.42103 26.1051V1.53841L7.40124 0.855469C3.06525 2.5961 0 6.83103 0 11.7893V20.2104C0 26.7215 5.2783 31.9998 11.7894 31.9998H20.2105C24.1869 31.9998 27.6909 30.0225 29.8248 27.0053V26.1051H8.42103Z" fill="#2962FF"/>
<path d="M20.2105 0H11.7895C10.2358 0 8.75709 0.30821 7.39877 0.853892C4.59205 3.57894 2.52637 8.02355 2.52637 11.7894C2.52637 17.4913 3.31458 20.8294 5.65225 24.09C5.83415 24.3435 5.95288 24.6399 5.96888 24.9507C6.00509 25.6538 5.86025 26.9422 4.59289 28.1018C4.45647 28.2264 4.5432 28.4547 4.72762 28.4622C5.52088 28.4968 7.12172 28.4504 8.76719 27.7237C9.23624 27.5165 9.77013 27.5528 10.2232 27.7936C13.0131 29.2749 16.2804 29.4736 19.3684 29.4736C23.3061 29.4736 27.2328 28.5978 29.8248 27.018C31.1899 25.0938 32 22.7486 32 20.2105V11.7894C32 5.2783 26.7217 0 20.2105 0Z" fill="#EEEEEE"/>
<path d="M26.737 18.5267C24.9964 18.5267 23.5791 17.1094 23.5791 15.3688C23.5791 13.6282 24.9964 12.2109 26.737 12.2109C28.4776 12.2109 29.8949 13.6282 29.8949 15.3688C29.8949 17.1094 28.4776 18.5267 26.737 18.5267ZM26.737 13.4741C25.6928 13.4741 24.8423 14.3246 24.8423 15.3688C24.8423 16.413 25.6928 17.2636 26.737 17.2636C27.7812 17.2636 28.6317 16.413 28.6317 15.3688C28.6317 14.3246 27.7812 13.4741 26.737 13.4741Z" fill="#2962FF"/>
<path d="M22.3159 18.5281H21.4738C21.2414 18.5281 21.0527 18.3395 21.0527 18.1071V10.9492H22.3159V18.5281Z" fill="#2962FF"/>
<path d="M18.5262 12.4215V12.8585C17.9966 12.4577 17.3448 12.2109 16.6315 12.2109C14.8909 12.2109 13.4736 13.6282 13.4736 15.3688C13.4736 17.1094 14.8909 18.5267 16.6315 18.5267C17.3448 18.5267 17.9966 18.28 18.5262 17.8791V18.1057C18.5262 18.3381 18.7149 18.5267 18.9473 18.5267H19.7894V12.4215H18.5262ZM16.6315 17.2636C15.5873 17.2636 14.7368 16.413 14.7368 15.3688C14.7368 14.3246 15.5873 13.4741 16.6315 13.4741C17.6757 13.4741 18.5262 14.3246 18.5262 15.3688C18.5262 16.413 17.6757 17.2636 16.6315 17.2636Z" fill="#2962FF"/>
<path d="M13.6842 10.9492H6.94742V12.2124H11.4282L6.73689 17.686H6.75879C6.62152 17.8637 6.52637 18.0759 6.52637 18.3176V18.5281H12.8421C13.0746 18.5281 13.2632 18.3395 13.2632 18.1071V17.265H8.78236L13.4737 11.7913H13.4518C13.5891 11.6136 13.6842 11.4014 13.6842 11.1597V10.9492Z" fill="#2962FF"/>
</g>
</g>
<defs>
<clipPath id="clip0_2681_1476214">
<rect width="32" height="32" fill="white"/>
</clipPath>
</defs>
</svg>
