<svg width="32" height="32" viewBox="0 0 32 32" fill="none" xmlns="http://www.w3.org/2000/svg">
<rect width="32" height="32" rx="16" fill="url(#paint0_linear_2681_1476206)"/>
<path fill-rule="evenodd" clip-rule="evenodd" d="M7.24236 15.8319C11.9067 13.7997 15.017 12.46 16.5732 11.8127C21.0166 9.96457 21.9399 9.64353 22.5417 9.63293C22.674 9.63059 22.97 9.6634 23.1617 9.81895C23.3235 9.95029 23.3681 10.1277 23.3894 10.2522C23.4107 10.3768 23.4372 10.6605 23.4161 10.8821C23.1753 13.4121 22.1335 19.5517 21.6034 22.3853C21.3791 23.5843 20.9375 23.9863 20.51 24.0257C19.5808 24.1112 18.8753 23.4116 17.9753 22.8217C16.5671 21.8986 15.7716 21.324 14.4047 20.4232C12.825 19.3822 13.849 18.8101 14.7493 17.875C14.9849 17.6303 19.0787 13.9066 19.158 13.5688C19.1679 13.5266 19.1771 13.3691 19.0835 13.2859C18.99 13.2028 18.8519 13.2312 18.7523 13.2538C18.611 13.2859 16.3614 14.7728 12.0034 17.7146C11.3648 18.1531 10.7864 18.3667 10.2682 18.3555C9.69694 18.3432 8.59802 18.0325 7.78109 17.767C6.77909 17.4412 5.98272 17.269 6.05206 16.7159C6.08818 16.4278 6.48495 16.1331 7.24236 15.8319Z" fill="white"/>
<defs>
<linearGradient id="paint0_linear_2681_1476206" x1="16" y1="0" x2="16" y2="31.7627" gradientUnits="userSpaceOnUse">
<stop stop-color="#2AABEE"/>
<stop offset="1" stop-color="#229ED9"/>
</linearGradient>
</defs>
</svg>
