<svg width="32" height="32" viewBox="0 0 32 32" fill="none" xmlns="http://www.w3.org/2000/svg">
<rect width="32" height="32" rx="16" fill="black"/>
<path d="M20.461 12.8852C21.9015 13.9186 23.6661 14.5266 25.572 14.5266V10.846C25.2113 10.8461 24.8515 10.8084 24.4986 10.7333V13.6305C22.5929 13.6305 20.8285 13.0225 19.3877 11.9892V19.5002C19.3877 23.2575 16.3526 26.3033 12.6088 26.3033C11.2119 26.3033 9.91351 25.8794 8.83496 25.1526C10.0659 26.4157 11.7826 27.1993 13.6819 27.1993C17.4259 27.1993 20.4612 24.1536 20.4612 20.3961V12.8852H20.461ZM21.7851 9.17201C21.0489 8.36489 20.5656 7.32184 20.461 6.16871V5.69531H19.4439C19.6999 7.16094 20.5732 8.41309 21.7851 9.17201ZM11.2029 22.2693C10.7916 21.7281 10.5693 21.066 10.5703 20.3853C10.5703 18.6668 11.9586 17.2735 13.6713 17.2735C13.9905 17.2734 14.3078 17.3224 14.612 17.4193V13.6565C14.2565 13.6076 13.8977 13.5868 13.5391 13.5944V16.5232C13.2347 16.4264 12.9172 16.3772 12.598 16.3775C10.8852 16.3775 9.49708 17.7707 9.49708 19.4894C9.49708 20.7046 10.191 21.7568 11.2029 22.2693Z" fill="#FF004F"/>
<path d="M19.3881 11.9891C20.8289 13.0224 22.5933 13.6304 24.4991 13.6304V10.7333C23.4353 10.5059 22.4936 9.94799 21.7855 9.17201C20.5735 8.41302 19.7003 7.16087 19.4443 5.69531H16.7725V20.3959C16.7665 22.1097 15.3806 23.4974 13.6716 23.4974C12.6645 23.4974 11.7698 23.0156 11.2031 22.2693C10.1913 21.7568 9.49736 20.7046 9.49736 19.4895C9.49736 17.7709 10.8855 16.3775 12.5982 16.3775C12.9264 16.3775 13.2427 16.4288 13.5394 16.5233V13.5945C9.86134 13.6708 6.90332 16.6867 6.90332 20.396C6.90332 22.2476 7.63994 23.9262 8.83547 25.1527C9.91402 25.8794 11.2124 26.3033 12.6093 26.3033C16.3531 26.3033 19.3882 23.2574 19.3882 19.5002V11.9891H19.3881Z" fill="white"/>
<path d="M24.4991 10.7308V9.94746C23.5398 9.94892 22.5994 9.67932 21.7855 9.16948C22.506 9.96106 23.4547 10.5069 24.4991 10.7308ZM19.4443 5.69286C19.4199 5.55279 19.4011 5.4118 19.3881 5.27027V4.79688H15.6992V19.4976C15.6933 21.2112 14.3075 22.5989 12.5983 22.5989C12.0965 22.5989 11.6227 22.4793 11.2031 22.2669C11.7698 23.0131 12.6645 23.4948 13.6716 23.4948C15.3805 23.4948 16.7666 22.1073 16.7726 20.3935V5.69286H19.4443ZM13.5395 13.592V12.7581C13.2313 12.7158 12.9205 12.6946 12.6094 12.6948C8.8652 12.6947 5.83008 15.7406 5.83008 19.4976C5.83008 21.8531 7.02293 23.929 8.83557 25.15C7.64003 23.9237 6.90342 22.245 6.90342 20.3935C6.90342 16.6843 9.86136 13.6683 13.5395 13.592Z" fill="#00F2EA"/>
</svg>
